<svg width="128" height="128" viewBox="0 0 128 128" fill="none" xmlns="http://www.w3.org/2000/svg">
<rect width="128" height="128" rx="32" fill="#2563EB"/>
<path d="M44.8985 83.2696C42.6327 84.514 40.5487 86.0403 38.6466 87.8485C32.673 93.5272 29.6241 100.911 29.5 110C42.8898 109.443 50.2236 106.12 55.7938 101.641M64.0864 109.345C80.1012 96.6472 85.4395 81.423 85.4395 63.6726C85.4395 45.9222 80.1012 30.698 64.0864 18C48.0716 30.698 42.7333 45.9222 42.7333 63.6726C42.7333 81.423 48.0716 96.6472 64.0864 109.345ZM83.1015 83.2696C85.3673 84.514 87.4513 86.0403 89.3534 87.8485C95.327 93.5272 98.3759 100.911 98.5 110C85.1102 109.443 77.7764 106.12 72.2062 101.641L83.1015 83.2696ZM74.7629 48.4484C74.7629 54.0538 69.9829 58.5978 64.0864 58.5978C58.1899 58.5978 53.4098 54.0538 53.4098 48.4484C53.4098 42.843 58.1899 38.2989 64.0864 38.2989C69.9829 38.2989 74.7629 42.843 74.7629 48.4484Z" stroke="white" stroke-width="4" stroke-linecap="round" stroke-linejoin="round"/>
<rect x="0.5" y="0.5" width="127" height="127" rx="31.5" stroke="#60A5FA" stroke-opacity="0.5"/>
</svg>
