<svg width="128" height="128" viewBox="0 0 128 128" fill="none" xmlns="http://www.w3.org/2000/svg">
<rect width="128" height="128" rx="32" fill="#3B82F6"/>
<path d="M40.4065 64.1034C38.2482 63.4753 36.0283 63.1324 33.7469 63.0747C26.5822 62.8934 20.1674 65.5588 14.5025 71.0711C23.0783 78.9614 29.6306 81.4278 35.8096 82.0988M36.1715 91.9347C53.8263 93.9742 66.4696 87.8956 77.3839 76.9813C88.2982 66.067 94.3768 53.4236 92.3374 35.7688C74.6826 33.7294 62.0392 39.808 51.1249 50.7223C40.2106 61.6366 34.132 74.2799 36.1715 91.9347ZM63.8966 87.5935C64.5246 89.7518 64.8675 91.9717 64.9253 94.2531C65.1066 101.418 62.4412 107.833 56.9289 113.497C49.0386 104.922 46.5722 98.3693 45.9012 92.1903L63.8966 87.5935ZM80.1801 61.0555C76.7335 64.5022 71.0004 64.3571 67.3747 60.7315C63.7491 57.1058 63.604 51.3727 67.0507 47.9261C70.4973 44.4794 76.2304 44.6245 79.8561 48.2502C83.4817 51.8758 83.6268 57.6089 80.1801 61.0555Z" stroke="white" stroke-width="4" stroke-linecap="round" stroke-linejoin="round"/>
<rect x="1" y="1" width="126" height="126" rx="31" stroke="#60A5FA" stroke-opacity="0.5" stroke-width="2"/>
</svg>
